<svg width="102" height="29" viewBox="0 0 102 29" fill="none" xmlns="http://www.w3.org/2000/svg">
<path d="M9.86411 7.84002C11.9041 7.84002 13.4041 8.24802 14.3641 9.06402C15.3241 9.85602 15.8041 10.876 15.8041 12.124C15.8041 13.18 15.4681 13.984 14.7961 14.536C14.1481 15.088 13.2001 15.364 11.9521 15.364C11.6161 15.364 11.3881 15.328 11.2681 15.256C11.1481 15.184 11.0881 15.052 11.0881 14.86C11.0881 14.644 11.0641 14.404 11.0161 14.14C10.9921 13.852 10.9081 13.588 10.7641 13.348C10.6441 13.084 10.4401 12.868 10.1521 12.7C9.88811 12.532 9.50411 12.448 9.00011 12.448C8.32811 12.448 7.78811 12.616 7.38011 12.952C6.97211 13.264 6.76811 13.66 6.76811 14.14C6.76811 14.644 6.97211 15.052 7.38011 15.364C7.81211 15.652 8.34011 15.928 8.96411 16.192C9.61211 16.456 10.3081 16.732 11.0521 17.02C11.7961 17.284 12.4801 17.644 13.1041 18.1C13.7521 18.556 14.2801 19.132 14.6881 19.828C15.1201 20.5 15.3361 21.376 15.3361 22.456C15.3361 24.184 14.7241 25.6 13.5001 26.704C12.2761 27.808 10.4401 28.36 7.99211 28.36C7.32011 28.36 6.54011 28.3 5.65211 28.18C4.78811 28.084 3.96011 27.928 3.16811 27.712C2.37611 27.472 1.70411 27.16 1.15211 26.776C0.624107 26.392 0.360107 25.912 0.360107 25.336C0.360107 25.12 0.396107 24.856 0.468107 24.544C0.564107 24.232 0.696107 23.932 0.864107 23.644C1.05611 23.356 1.27211 23.116 1.51211 22.924C1.77611 22.708 2.08811 22.6 2.44811 22.6C2.73611 22.6 3.00011 22.672 3.24011 22.816C3.48011 22.96 3.75611 23.116 4.06811 23.284C4.40411 23.428 4.81211 23.572 5.29211 23.716C5.77211 23.86 6.40811 23.932 7.20011 23.932C7.80011 23.932 8.32811 23.86 8.78411 23.716C9.26411 23.572 9.50411 23.248 9.50411 22.744C9.50411 22.288 9.31211 21.928 8.92811 21.664C8.54411 21.376 8.05211 21.112 7.45211 20.872C6.87611 20.632 6.24011 20.38 5.54411 20.116C4.87211 19.828 4.23611 19.456 3.63611 19C3.06011 18.544 2.58011 17.968 2.19611 17.272C1.81211 16.552 1.62011 15.628 1.62011 14.5C1.62011 13.276 1.86011 12.244 2.34011 11.404C2.84411 10.54 3.48011 9.84402 4.24811 9.31602C5.04011 8.78802 5.92811 8.41602 6.91211 8.20002C7.89611 7.96002 8.88011 7.84002 9.86411 7.84002Z" fill="black"/>
<path d="M22.0943 28C21.3503 28 20.7383 27.928 20.2583 27.784C19.8023 27.616 19.4303 27.388 19.1423 27.1C18.8783 26.812 18.6863 26.464 18.5663 26.056C18.4703 25.624 18.4223 25.132 18.4223 24.58C18.4223 24.22 18.4343 23.716 18.4583 23.068C18.5063 22.396 18.5783 21.484 18.6743 20.332C18.7703 19.156 18.8783 17.68 18.9983 15.904C19.1423 14.104 19.3103 11.884 19.5023 9.24402C19.5263 8.71602 19.5863 8.40402 19.6823 8.30802C19.7543 8.23602 19.9463 8.20002 20.2583 8.20002H21.6623C22.4063 8.20002 23.0063 8.27202 23.4623 8.41602C23.9423 8.56002 24.3143 8.77602 24.5783 9.06402C24.8663 9.35202 25.0583 9.70002 25.1543 10.108C25.2743 10.516 25.3343 10.972 25.3343 11.476C25.3343 11.836 25.3103 12.376 25.2623 13.096C25.2143 13.816 25.1423 14.8 25.0463 16.048C24.9743 17.272 24.8663 18.808 24.7223 20.656C24.5783 22.48 24.3983 24.688 24.1823 27.28C24.1583 27.568 24.0983 27.76 24.0023 27.856C23.9063 27.952 23.7023 28 23.3903 28H22.0943ZM19.5383 3.95202C19.5383 2.99202 19.8863 2.23602 20.5823 1.68402C21.2783 1.13202 22.2143 0.856018 23.3903 0.856018C24.4223 0.856018 25.1663 1.07202 25.6223 1.50402C26.1023 1.91202 26.3423 2.46402 26.3423 3.16002C26.3423 4.04802 26.0063 4.79202 25.3343 5.39202C24.6863 5.96802 23.7263 6.25602 22.4543 6.25602C20.5103 6.25602 19.5383 5.48802 19.5383 3.95202Z" fill="black"/>
<path d="M34.7393 21.52C34.6673 22.624 34.5833 23.68 34.4873 24.688C34.3913 25.672 34.3193 26.536 34.2713 27.28C34.2473 27.568 34.1873 27.76 34.0913 27.856C33.9953 27.952 33.7913 28 33.4793 28H32.1833C31.4393 28 30.8273 27.928 30.3473 27.784C29.8913 27.616 29.5193 27.388 29.2313 27.1C28.9673 26.812 28.7753 26.464 28.6553 26.056C28.5593 25.624 28.5113 25.132 28.5113 24.58C28.5113 24.22 28.5233 23.716 28.5473 23.068C28.5953 22.396 28.6673 21.484 28.7633 20.332C28.8593 19.156 28.9673 17.68 29.0873 15.904C29.2313 14.104 29.3993 11.884 29.5913 9.24402C29.6153 8.71602 29.6753 8.40402 29.7713 8.30802C29.8433 8.23602 30.0353 8.20002 30.3473 8.20002H31.7513C32.4713 8.20002 33.0593 8.28402 33.5153 8.45202C33.9713 8.62002 34.3433 8.83602 34.6313 9.10002C34.9193 9.36402 35.1233 9.67602 35.2433 10.036C35.3633 10.396 35.4353 10.768 35.4593 11.152C36.1553 9.85602 36.9473 8.98002 37.8353 8.52402C38.7233 8.06802 39.7673 7.84002 40.9673 7.84002C41.6153 7.84002 42.2393 7.90002 42.8393 8.02002C43.4393 8.14002 43.9793 8.34402 44.4593 8.63202C44.9393 8.92002 45.3473 9.30402 45.6833 9.78402C46.0193 10.24 46.2593 10.828 46.4033 11.548C47.1473 10.156 47.9633 9.19602 48.8513 8.66802C49.7393 8.11602 50.8553 7.84002 52.1993 7.84002C52.9433 7.84002 53.6513 7.92402 54.3233 8.09202C55.0193 8.23602 55.6193 8.50002 56.1233 8.88402C56.6273 9.26802 57.0233 9.79602 57.3113 10.468C57.6233 11.116 57.7793 11.932 57.7793 12.916C57.7793 13.66 57.7433 14.572 57.6713 15.652C57.5993 16.732 57.5153 17.908 57.4193 19.18C57.3233 20.428 57.2153 21.724 57.0953 23.068C56.9753 24.388 56.8793 25.66 56.8073 26.884C56.7833 27.148 56.7593 27.352 56.7353 27.496C56.7113 27.64 56.6633 27.748 56.5913 27.82C56.5433 27.892 56.4593 27.94 56.3393 27.964C56.2193 27.988 56.0513 28 55.8353 28H54.6833C53.9153 28 53.2913 27.928 52.8113 27.784C52.3313 27.64 51.9593 27.436 51.6953 27.172C51.4313 26.908 51.2393 26.584 51.1193 26.2C51.0233 25.792 50.9753 25.336 50.9753 24.832C50.9753 24.52 50.9873 24.076 51.0113 23.5C51.0593 22.924 51.1073 22.3 51.1553 21.628C51.2273 20.956 51.2873 20.26 51.3353 19.54C51.4073 18.82 51.4673 18.16 51.5153 17.56C51.5873 16.936 51.6353 16.396 51.6593 15.94C51.7073 15.484 51.7313 15.184 51.7313 15.04C51.7313 14.416 51.5993 13.864 51.3353 13.384C51.0953 12.904 50.6153 12.664 49.8953 12.664C49.2713 12.664 48.7313 12.868 48.2753 13.276C47.8193 13.684 47.4353 14.248 47.1233 14.968C46.8113 15.688 46.5593 16.54 46.3673 17.524C46.1753 18.508 46.0433 19.576 45.9713 20.728C45.9233 21.472 45.8633 22.324 45.7913 23.284C45.7193 24.244 45.6353 25.444 45.5393 26.884C45.5153 27.148 45.4913 27.352 45.4673 27.496C45.4433 27.64 45.3953 27.748 45.3233 27.82C45.2753 27.892 45.1913 27.94 45.0713 27.964C44.9513 27.988 44.7833 28 44.5673 28H43.4153C42.6473 28 42.0233 27.928 41.5433 27.784C41.0633 27.64 40.6913 27.436 40.4273 27.172C40.1633 26.908 39.9713 26.584 39.8513 26.2C39.7553 25.792 39.7073 25.336 39.7073 24.832C39.7073 24.352 39.7433 23.656 39.8153 22.744C39.9113 21.808 39.9953 20.848 40.0673 19.864C40.1633 18.856 40.2473 17.908 40.3193 17.02C40.4153 16.108 40.4633 15.448 40.4633 15.04C40.4633 14.416 40.3313 13.864 40.0673 13.384C39.8273 12.904 39.3473 12.664 38.6273 12.664C37.9793 12.664 37.4273 12.904 36.9713 13.384C36.5153 13.864 36.1313 14.512 35.8193 15.328C35.5313 16.12 35.2913 17.056 35.0993 18.136C34.9313 19.216 34.8113 20.344 34.7393 21.52Z" fill="black"/>
<path d="M69.2396 28.36C67.3916 28.36 65.9276 28.096 64.8476 27.568C63.7676 27.016 62.9516 26.332 62.3996 25.516C61.8476 24.7 61.4996 23.824 61.3556 22.888C61.2116 21.928 61.1396 21.052 61.1396 20.26C61.1396 19.948 61.1636 19.336 61.2116 18.424C61.2836 17.512 61.3676 16.456 61.4636 15.256C61.5596 14.056 61.6556 12.784 61.7516 11.44C61.8476 10.072 61.9436 8.78802 62.0396 7.58802C62.1356 6.36402 62.2076 5.28402 62.2556 4.34802C62.3276 3.41202 62.3636 2.76402 62.3636 2.40402C62.3636 1.87602 62.3996 1.57602 62.4716 1.50402C62.5436 1.40802 62.7596 1.36002 63.1196 1.36002H64.5236C65.2436 1.36002 65.8436 1.44402 66.3236 1.61202C66.8036 1.78002 67.1876 2.00802 67.4756 2.29602C67.7636 2.58402 67.9676 2.92002 68.0876 3.30402C68.2076 3.66402 68.2676 4.06002 68.2676 4.49202C68.2676 4.90002 68.2196 5.69202 68.1236 6.86802C68.0516 8.04402 67.9556 9.42402 67.8356 11.008C68.4596 9.92802 69.1676 9.13602 69.9596 8.63202C70.7516 8.10402 71.7956 7.84002 73.0916 7.84002C75.2756 7.84002 76.9436 8.56002 78.0956 10C79.2716 11.44 79.8596 13.588 79.8596 16.444C79.8596 17.188 79.7996 18.004 79.6796 18.892C79.5836 19.78 79.3916 20.668 79.1036 21.556C78.8396 22.42 78.4556 23.272 77.9516 24.112C77.4716 24.928 76.8356 25.648 76.0436 26.272C75.2516 26.896 74.2916 27.4 73.1636 27.784C72.0596 28.168 70.7516 28.36 69.2396 28.36ZM70.8596 12.628C69.9956 12.628 69.3116 12.856 68.8076 13.312C68.3276 13.768 67.9556 14.32 67.6916 14.968C67.4276 15.616 67.2596 16.312 67.1876 17.056C67.1156 17.776 67.0796 18.412 67.0796 18.964C67.0796 20.62 67.3076 21.808 67.7636 22.528C68.2196 23.224 68.9036 23.572 69.8156 23.572C70.6796 23.572 71.3516 23.308 71.8316 22.78C72.3356 22.228 72.7076 21.58 72.9476 20.836C73.2116 20.092 73.3796 19.336 73.4516 18.568C73.5236 17.8 73.5596 17.2 73.5596 16.768C73.5596 15.424 73.3556 14.404 72.9476 13.708C72.5396 12.988 71.8436 12.628 70.8596 12.628Z" fill="black"/>
<path d="M90.6456 28.36C88.9896 28.36 87.6096 28.132 86.5056 27.676C85.4256 27.196 84.5616 26.548 83.9136 25.732C83.2656 24.916 82.8096 23.968 82.5456 22.888C82.2816 21.784 82.1496 20.608 82.1496 19.36C82.1496 17.92 82.3176 16.516 82.6536 15.148C83.0136 13.756 83.6136 12.52 84.4536 11.44C85.2936 10.36 86.3976 9.49602 87.7656 8.84802C89.1576 8.17602 90.8856 7.84002 92.9496 7.84002C95.9736 7.84002 98.1336 8.58402 99.4296 10.072C100.75 11.536 101.41 13.6 101.41 16.264C101.41 17.008 101.35 17.836 101.23 18.748C101.134 19.636 100.93 20.524 100.618 21.412C100.33 22.3 99.9216 23.164 99.3936 24.004C98.8896 24.844 98.2416 25.588 97.4496 26.236C96.6576 26.884 95.6976 27.4 94.5696 27.784C93.4656 28.168 92.1576 28.36 90.6456 28.36ZM92.3376 12.628C91.4256 12.628 90.6936 12.868 90.1416 13.348C89.6136 13.804 89.2056 14.368 88.9176 15.04C88.6536 15.688 88.4736 16.384 88.3776 17.128C88.3056 17.848 88.2696 18.46 88.2696 18.964C88.2696 20.548 88.5216 21.712 89.0256 22.456C89.5296 23.2 90.2496 23.572 91.1856 23.572C92.0256 23.572 92.7096 23.308 93.2376 22.78C93.7896 22.252 94.2096 21.616 94.4976 20.872C94.8096 20.128 95.0136 19.348 95.1096 18.532C95.2296 17.716 95.2896 17.032 95.2896 16.48C95.2896 15.28 95.0616 14.344 94.6056 13.672C94.1736 12.976 93.4176 12.628 92.3376 12.628Z" fill="black"/>
</svg>
